<?xml version="1.0" encoding="utf-8"?>
<!-- Generator: Adobe Illustrator 23.0.2, SVG Export Plug-In . SVG Version: 6.00 Build 0)  -->
<svg version="1.1" id="Layer_1" xmlns="http://www.w3.org/2000/svg" xmlns:xlink="http://www.w3.org/1999/xlink" x="0px" y="0px" viewBox="0 0 40 39" style="enable-background:new 0 0 40 39;" xml:space="preserve">
<style type="text/css">.st0{stroke:#000000;stroke-miterlimit:10;}</style>
  <path class="st0" d="M32.7,11.9L32.7,11.9c-0.3-0.3-0.8-0.3-1.1,0L17.5,26.6c-0.3,0.3-0.8,0.3-1.1,0l-5.2-5.4
c-0.3-0.3-0.8-0.3-1.1,0l0,0c-0.3,0.3-0.3,0.8,0,1.1l5.8,6.1l0,0c0,0,0.8,0.9,1.1,1.2l0,0l0,0c0.3-0.3,1.1-1.2,1.1-1.2l0.1-0.1
l14.8-15.3C33,12.6,33,12.2,32.7,11.9z"/>
</svg>
